# xmcd CD database file
#
# Track frame offsets:
#	150
#	15245
#	131783
#	170993
#
# Disc length: 3406 seconds
#
# Revision: 1
# Processed by: cddbd v1.5.1PL0 Copyright (c) Steve Scherf et al.
# Submitted via: CDex 1.51
#
DISCID=2f0d4c04
DTITLE=Buddy Guy and Stevie Ray Vaughan - It's still called the blues
DYEAR=1989
DGENRE=Blues
TTITLE0=It's Called The Blues
TTITLE1=Champagne and Reefer
TTITLE2=Mary Had A Little Lamb
TTITLE3=Leave My Girl Alone
EXTD=YEAR: 1989
EXTT0=
EXTT1=
EXTT2=
EXTT3=
PLAYORDER=
